<svg width="37" height="34" viewBox="0 0 37 34" fill="none" xmlns="http://www.w3.org/2000/svg">
<path d="M23.3333 16.6667H25.8333V21.3667L29.9 23.7167L28.65 25.8833L23.3333 22.8167V16.6667ZM36.6667 21.6667C36.6667 24.7609 35.4375 27.7283 33.2496 29.9162C31.0617 32.1042 28.0942 33.3333 25 33.3333C20.35 33.3333 16.3333 30.6 14.45 26.6667H3.33333C1.48333 26.6667 0 25.1667 0 23.3333V3.33333C0 1.48333 1.48333 0 3.33333 0H30C30.8841 0 31.7319 0.351189 32.357 0.976311C32.9821 1.60143 33.3333 2.44928 33.3333 3.33333V13.5C35.4 15.6 36.6667 18.4833 36.6667 21.6667ZM25 13.3333C22.7899 13.3333 20.6702 14.2113 19.1074 15.7741C17.5446 17.3369 16.6667 19.4565 16.6667 21.6667C16.6667 23.8768 17.5446 25.9964 19.1074 27.5592C20.6702 29.122 22.7899 30 25 30C27.2101 30 29.3298 29.122 30.8926 27.5592C32.4554 25.9964 33.3333 23.8768 33.3333 21.6667C33.3333 19.4565 32.4554 17.3369 30.8926 15.7741C29.3298 14.2113 27.2101 13.3333 25 13.3333ZM30 10V5H3.33333V10H30Z" fill="#004FFF"/>
</svg>
