<svg width="37" height="27" viewBox="0 0 37 27" fill="none" xmlns="http://www.w3.org/2000/svg">
<path d="M6.66667 0H36.6667V20H6.66667V0ZM21.6667 5C22.9928 5 24.2645 5.52678 25.2022 6.46447C26.1399 7.40215 26.6667 8.67392 26.6667 10C26.6667 11.3261 26.1399 12.5979 25.2022 13.5355C24.2645 14.4732 22.9928 15 21.6667 15C20.3406 15 19.0688 14.4732 18.1311 13.5355C17.1935 12.5979 16.6667 11.3261 16.6667 10C16.6667 8.67392 17.1935 7.40215 18.1311 6.46447C19.0688 5.52678 20.3406 5 21.6667 5ZM13.3333 3.33333C13.3333 4.21739 12.9821 5.06523 12.357 5.69036C11.7319 6.31548 10.8841 6.66667 10 6.66667V13.3333C10.8841 13.3333 11.7319 13.6845 12.357 14.3096C12.9821 14.9348 13.3333 15.7826 13.3333 16.6667H30C30 15.7826 30.3512 14.9348 30.9763 14.3096C31.6014 13.6845 32.4493 13.3333 33.3333 13.3333V6.66667C32.4493 6.66667 31.6014 6.31548 30.9763 5.69036C30.3512 5.06523 30 4.21739 30 3.33333H13.3333ZM0 6.66667H3.33333V23.3333H30V26.6667H0V6.66667Z" fill="#004FFF"/>
</svg>
