<svg width="30" height="30" viewBox="0 0 30 30" fill="none" xmlns="http://www.w3.org/2000/svg">
<path d="M23.7469 25C13.0823 25.0151 4.9886 16.8244 5.00001 6.25314C5.00001 5.56278 5.55966 5 6.25001 5H9.54921C10.1687 5 10.6949 5.45516 10.7859 6.06791C11.0039 7.5365 11.4315 8.96621 12.0556 10.3134L12.1841 10.5906C12.3627 10.9761 12.2416 11.4342 11.8958 11.6811C10.8741 12.4107 10.4837 13.8794 11.2796 15.0254C12.2785 16.4636 13.5376 17.7224 14.9753 18.7208C16.1213 19.5165 17.5898 19.1261 18.3194 18.1046C18.5665 17.7586 19.0248 17.6375 19.4105 17.8162L19.6865 17.944C21.0337 18.5681 22.4636 18.9957 23.9323 19.2137C24.5451 19.3046 25 19.8308 25 20.4503V23.75C25 24.4403 24.439 25 23.7486 25L23.7469 25Z" fill="#474C54"/>
</svg>
